<svg xmlns="http://www.w3.org/2000/svg" width="15" viewBox="0 -15 100 125"><style>.st0{display:none}.st1{display:inline}</style><g class="st0"><path class="st1" d="M77.5 27.5v-5h-5v-5h-10v5h-5v5h-5v5h-5v-5h-5v-5h-5v-5h-10v5h-5v5h-5v20h5v10h5v5h5v5h5v5h5v5h5v5h5v-5h5v-5h5v-5h5v-5h5v-5h5v-10h5v-20z"/></g><g class="st0"><path class="st1" d="M77.5 37.5h-15v-5h-5v-10h-5v-5h-5v5h-5v10h-5v5h-20v5h5v5h5v5h5v10h-5v10h-5v10h10v-5h10v-5h5v-5h5v5h5v5h10v5h10v-10h-5v-10h-5v-10h5v-5h5v-5h5v-5z"/></g><g class="st0"><path class="st1" d="M77.5 17.5v5h-5v10h-5v5h-5v-5h-5v-10h-5v-5h-5v5h-5v10h-5v5h-5v-5h-5v-10h-5v-5h-5v50h5v5h5v5h10v5h25v-5h10v-5h5v-5h5v-50z"/></g><g class="st0"><path class="st1" d="M77.5 37.5v-10h-5v-5h-10v-5h-25v5h-10v5h-5v10h-5v25h5v10h5v5h10v5h25v-5h10v-5h5v-10h5v-25h-5zm-45 5v-5h10v10h-10v-5zm25 5v-10h10v10h-10zm10 15v5h-5v5h-25v-5h-5v-5h-5v-10h5v5h5v5h5v5h15v-5h5v-5h5v-5h5v10h-5z"/></g><g class="st0"><path class="st1" d="M77.5 37.5v-10h-5v-5h-10v-5h-25v5h-10v5h-5v10h-5v25h5v10h5v5h10v5h25v-5h10v-5h5v-10h5v-25h-5zm-10 25v5h-5v-5h-5v-5h-15v5h-5v5h-5v-10h5v-5h25v5h5v5zm-35-25h10v10h-10v-10zm35 5v5h-10v-10h10v5z"/></g><g class="st0"><path class="st1" d="M47.5 47.5v-5h5v-5h5v-5h20v-5h-5v-5h-10v-5h-25v5h-10v5h-5v10h-5v25h5v10h5v5h10v5h25v-5h10v-5h5v-5h-20v-5h-5v-5h-5v-5z"/></g><g class="st0"><g class="st1"><path d="M52.5 77.5h-10v-5h-5v-5h-5v-15h5v-5h5v-5h10v-5h5v-5h5v-5h5v-5h-5v-5h-25v5h-10v5h-5v10h-5v25h5v10h5v5h10v5h25v-5h-5z"/><path d="M77.5 37.5v-10h-10v5h-5v5h-5v5h-5v5h-10v5h-5v15h5v5h20v5h10v-5h5v-10h5v-25z"/></g></g><path d="M47.5 22.5h15v-5h-25v5h5zm5 55h-15v5h25v-5h-5zm15-50h5v-5h-10v5zm-30 0v-5h-10v5h5zm25 45v5h10v-5h-5zm-30 0h-5v5h10v-5zm40-35h5v-10h-5v5zm-45-5v-5h-5v10h5zm45 35v5h5v-10h-5zm-45-5h-5v10h5v-5zm20 5h5v5h-5zm30-30v25h5v-25zm-25 5v-15h-5v25h10v-5h-5zm5 0h5v5h-5zm10 5h5v5h-5zm-40 0h5v5h-5zm-5 5v-15h-5v25h5v-5z"/><path d="M75 52.5v-10h10v-5H75v-5H15v35h5v5h5v5h10v5h20v-5h10v-5h5v-5h5v-10h10v-5h-5zm10-10v10h5v-10z"/><path d="M62.5 40h-5v-5h-5V15h-5v5h-5v5h-5v20h-20v5h-5v25h5v5h5v5h35v-5h5v-5h5V45h-5zm20 5h-10v30h15V45h-5zm0 25h-5v-5h5v5z"/><path d="M87.5 47.5v-5h-5v-5h-5v-5h-5v-5h-5v-5h-5v-5h-5v20h-50v25h50v20h5v-5h5v-5h5v-5h5v-5h5v-5h5v-5h5v-5z"/><g class="st0"><path class="st1" d="M77.5 47.5v-5h-5v-5h-5v-5h-5v-5h-5v-5h-5v-5h-5v5h-5v5h-5v5h-5v5h-5v5h-5v5h-5v35h25v-25h15v25h25v-35z"/></g><g class="st0"><path class="st1" d="M67.5 7.5h-40v85h45v-85h-5zm-15 80H45v-10h10v10h-2.5zm15-65v50h-35v-55h35v5z"/></g><g class="st0"><path class="st1" d="M72.7 67.8v-5h-5v-5h-5v-5h-5v-5h5v-10h-5v-10h-10v-5h-10v5h-10v10h-5v10h5v10h10v5h10v-5h5v5h5v5h5v5h5v5h10v-10h-5zm-40-35h5v5h-5v-5z"/></g><path d="M47.5 27.5h5v-5h-15v5h5zm-5 35h-5v5h15v-5h-5zm15-30v5h5v-10h-10v5zm-25 25v-5h-5v10h10v-5zm0-25h5v-5h-10v10h5zm-5 10v-5h-5v15h5v-5zm35 5v5h5v-15h-5v5zm10 20v-5h-5v-5h-5v-5h-5v5h-5v5h5v5h5v5h5v5h10v-10z"/><g class="st0"><path class="st1" d="M87.5 32.5h-35v20h-5v-5h-5v-5h-10v-5h-25v5h20v5h5v5h5v5h5v5h10v5h25v-5h5v-5h5v-10h5v-15z"/></g><g class="st0"><path class="st1" d="M77.5 37.5v-10h-5v-5h-5v5h-5v10h-25v-10h-5v-5h-5v5h-5v10h-5v25h5v10h10v5h35v-5h10v-10h5v-25h-5zm-15 30h-25v-10h5v5h5v-5h5v5h5v-5h5v10zm5-15h-5v-5h5v5zm-30 0h-5v-5h5v5z"/></g><g class="st0"><g class="st1"><path d="M82.5 40v-5h-10v5h-5v10h5v5h10v-5h5V40zm-50 0h-5v-5h-10v5h-5v10h5v5h10v-5h5v-5z"/><path d="M32.5 40h10v-5h5V25h-5v-5h-10v5h-5v10h5zm40-5V25h-5v-5h-10v5h-5v10h5v5h10v-5zm-10 10h-25v5h-5v10h-5v15h5v5h15v-5h5v5h15v-5h5V60h-5V50h-5z"/></g></g><path d="M37.6 55h5v5h-5zm-10 5h-5v5h-5v15h5v5h15v-5h5V65h-5v-5h-5zm50 5v-5h-5V50h-5v10h-5v5h-5v15h5v5h15v-5h5V65zm-15-40h-5v10h5v-5zm-20 25v5h5V45h-5zm25-10v-5h-5v15h5v-5zm-20 0h5v5h-5zm5-5h5v5h-5zm15-15h5v-5h-10v10h5z"/><g class="st0"><path class="st1" d="M70 7.5H45v5h-5v5h-5v5h-5v10h-5v35h5v10h5v5h5v5h5v5h30v-30H60v5h-5v10h-5v-5H40v-45h10v-5h5v10h5v5h15v-30z"/></g></svg>