<svg xmlns="http://www.w3.org/2000/svg" width="30" viewBox="-10 -34 100 125"><path d="M57.156 21.424v-9.52h-4.761v14.28h4.761v9.52h-4.761v9.54h4.761v-4.78h4.76v-19.04zm-19.071 0v-9.52h-4.759v14.28h4.759v9.52h-4.759v9.54h4.759v-4.78h4.761v-19.04zm42.87 33.35h-4.76v-4.76H14.284v14.28h4.76v9.521h4.76v4.76h4.76v4.761h4.76v4.76h23.831v-4.76h4.76v-4.761h19.04v-4.76h4.76V54.774h-4.76zm-23.799 19.04v4.76h-4.762v4.761H38.085v-4.761h-4.76v-4.76h-4.76v-4.761h-4.76v-9.52h-4.76v-4.76h52.391v4.76h-4.76v9.52h-4.76v4.761h-4.76zm23.799-9.52v4.76h-4.76v4.761h-4.76v-9.521h4.76v-4.76h4.76v4.76z"/></svg>