<svg xmlns="http://www.w3.org/2000/svg" width="27" viewBox="204 170 100 125"><path d="M249.22 222.106h27.116v-6.78h-40.673v6.78h6.779zm-20.336 0h6.779v6.779h-6.779zm0 27.115v-20.336h-6.779v33.894h6.779V256zm0 13.558h6.779v6.779h-6.779zm6.779 6.779h6.779v6.778h-6.779zm6.779 6.779h6.778v6.779h-6.778zm6.778 6.779v13.558h13.559v-13.558H256zm27.116-61.01h6.779v6.779h-6.779zm6.779 6.779v33.894h6.78v-33.894zm-6.779 33.894h6.779v6.779h-6.779zm-6.778 6.779h6.778v6.778h-6.778zm-6.779 6.779h6.779v6.779h-6.779zM256 235.664h13.558v-6.779h-27.116v6.779h6.778zm13.558 6.778V256h6.778v-20.336h-6.778zM256 256h-13.558v6.779h27.116V256h-6.779zm-13.558-13.558v-6.778h-6.779V256h6.779v-6.779z"/></svg>